%FSLAX35Y35*%
%MOIN*%
G04 EasyPC Gerber Version 18.0.8 Build 3632 *
%ADD15R,0.06000X0.06000*%
%ADD13O,0.11000X0.06000*%
%ADD17C,0.01500*%
%ADD14C,0.06000*%
%ADD16R,0.08000X0.06000*%
X0Y0D02*
D02*
D13*
X155250Y25171D03*
Y35171D03*
Y45171D03*
Y55171D03*
Y65171D03*
Y75171D03*
Y85171D03*
Y95171D03*
X125250Y25171D03*
Y35171D03*
Y45171D03*
Y55171D03*
Y65171D03*
Y75171D03*
Y85171D03*
Y95171D03*
X85250Y25171D03*
Y35171D03*
Y45171D03*
Y55171D03*
Y65171D03*
Y75171D03*
Y85171D03*
Y95171D03*
Y105171D03*
Y115171D03*
Y125171D03*
Y135171D03*
Y145171D03*
Y155171D03*
X55250Y25171D03*
Y35171D03*
Y45171D03*
Y55171D03*
Y65171D03*
Y75171D03*
Y85171D03*
Y95171D03*
Y105171D03*
Y115171D03*
Y125171D03*
Y135171D03*
Y145171D03*
Y155171D03*
D02*
D14*
X160250Y175171D03*
X120250D03*
D02*
D15*
X175250Y25171D03*
Y35171D03*
Y45171D03*
Y55171D03*
Y65171D03*
X170250Y115171D03*
Y125171D03*
Y155171D03*
Y165171D03*
Y175171D03*
X150250Y115171D03*
Y125171D03*
Y135171D03*
X105250Y65171D03*
Y85171D03*
X25250Y15171D03*
Y25171D03*
Y35171D03*
Y45171D03*
Y55171D03*
Y65171D03*
Y95171D03*
Y105171D03*
Y125171D03*
Y135171D03*
Y165171D03*
Y175171D03*
D02*
D16*
X120250Y125171D03*
Y135171D03*
D02*
D17*
X185250Y145171D02*
Y115171D01*
X170250*
X175250Y65171D02*
Y95171D01*
X155250*
Y100171*
X135250*
Y110171*
X150250Y125171D02*
X135250D01*
Y110171*
X120250Y125171D02*
X130250D01*
Y140171*
X140250*
Y145171*
X185250*
X95250Y110171D02*
X135250D01*
X85250Y95171D02*
X95250D01*
Y110171*
X55250Y75171D02*
X70250D01*
Y30171*
X35250*
Y25171*
X25250*
X55250Y95171D02*
X40250D01*
Y80171*
X10250*
X35250Y125171D02*
Y165171D01*
X25250*
Y35171D02*
X10250D01*
Y80171*
X25250Y95171D02*
X35250D01*
Y125171*
X25250D02*
X35250D01*
X25250Y165171D02*
X95250D01*
Y110171*
X25250Y175171D02*
Y185171D01*
X185250*
Y145171*
X10250Y80171D02*
Y185171D01*
X25250*
X0Y0D02*
M02*
