%FSLAX35Y35*%
%MOIN*%
G04 EasyPC Gerber Version 18.0.8 Build 3632 *
%ADD70R,0.07000X0.07000*%
%ADD18O,0.12000X0.07000*%
%ADD19C,0.07000*%
%ADD71R,0.09000X0.07000*%
X0Y0D02*
D02*
D18*
X155250Y25171D03*
Y35171D03*
Y45171D03*
Y55171D03*
Y65171D03*
Y75171D03*
Y85171D03*
Y95171D03*
X125250Y25171D03*
Y35171D03*
Y45171D03*
Y55171D03*
Y65171D03*
Y75171D03*
Y85171D03*
Y95171D03*
X85250Y25171D03*
Y35171D03*
Y45171D03*
Y55171D03*
Y65171D03*
Y75171D03*
Y85171D03*
Y95171D03*
Y105171D03*
Y115171D03*
Y125171D03*
Y135171D03*
Y145171D03*
Y155171D03*
X55250Y25171D03*
Y35171D03*
Y45171D03*
Y55171D03*
Y65171D03*
Y75171D03*
Y85171D03*
Y95171D03*
Y105171D03*
Y115171D03*
Y125171D03*
Y135171D03*
Y145171D03*
Y155171D03*
D02*
D19*
X160250Y175171D03*
X120250D03*
D02*
D70*
X175250Y25171D03*
Y35171D03*
Y45171D03*
Y55171D03*
Y65171D03*
X170250Y115171D03*
Y125171D03*
Y155171D03*
Y165171D03*
Y175171D03*
X150250Y115171D03*
Y125171D03*
Y135171D03*
X105250Y65171D03*
Y85171D03*
X25250Y15171D03*
Y25171D03*
Y35171D03*
Y45171D03*
Y55171D03*
Y65171D03*
Y95171D03*
Y105171D03*
Y125171D03*
Y135171D03*
Y165171D03*
Y175171D03*
D02*
D71*
X120250Y125171D03*
Y135171D03*
X0Y0D02*
M02*
