%FSLAX35Y35*%
%MOIN*%
G04 EasyPC Gerber Version 18.0.8 Build 3632 *
%ADD15R,0.06000X0.06000*%
%ADD13O,0.11000X0.06000*%
%ADD17C,0.01500*%
%ADD14C,0.06000*%
%ADD16R,0.08000X0.06000*%
X0Y0D02*
D02*
D13*
X40171Y25171D03*
Y35171D03*
Y45171D03*
Y55171D03*
Y65171D03*
Y75171D03*
Y85171D03*
Y95171D03*
X70171Y25171D03*
Y35171D03*
Y45171D03*
Y55171D03*
Y65171D03*
Y75171D03*
Y85171D03*
Y95171D03*
X110171Y25171D03*
Y35171D03*
Y45171D03*
Y55171D03*
Y65171D03*
Y75171D03*
Y85171D03*
Y95171D03*
Y105171D03*
Y115171D03*
Y125171D03*
Y135171D03*
Y145171D03*
Y155171D03*
X140171Y25171D03*
Y35171D03*
Y45171D03*
Y55171D03*
Y65171D03*
Y75171D03*
Y85171D03*
Y95171D03*
Y105171D03*
Y115171D03*
Y125171D03*
Y135171D03*
Y145171D03*
Y155171D03*
D02*
D14*
X35171Y175171D03*
X75171D03*
D02*
D15*
X20171Y25171D03*
Y35171D03*
Y45171D03*
Y55171D03*
Y65171D03*
X25171Y115171D03*
Y125171D03*
Y155171D03*
Y165171D03*
Y175171D03*
X45171Y115171D03*
Y125171D03*
Y135171D03*
X90171Y65171D03*
Y85171D03*
X170171Y15171D03*
Y25171D03*
Y35171D03*
Y45171D03*
Y55171D03*
Y65171D03*
Y95171D03*
Y105171D03*
Y125171D03*
Y135171D03*
Y165171D03*
Y175171D03*
D02*
D16*
X75171Y125171D03*
Y135171D03*
D02*
D17*
X20171Y25171D02*
X40171D01*
X20171Y35171D02*
X40171D01*
X20171Y45171D02*
X40171D01*
X20171Y55171D02*
X40171D01*
X25171Y115171D02*
Y105171D01*
X70171*
Y95171*
X25171Y125171D02*
Y135171D01*
X45171*
X35171Y175171D02*
X25171D01*
X70171Y25171D02*
X110171D01*
X70171Y55171D02*
X110171D01*
X75171Y135171D02*
X85171D01*
Y125171*
X110171*
X75171Y175171D02*
Y155171D01*
X110171*
X90171Y65171D02*
X110171D01*
X90171Y85171D02*
Y75171D01*
X110171*
Y35171D02*
X70171D01*
X110171Y45171D02*
X70171D01*
X110171Y115171D02*
X45171D01*
X110171Y135171D02*
X90171D01*
Y145171*
X65171*
Y155171*
X25171*
X110171Y145171D02*
X95171D01*
Y150171*
X70171*
Y165171*
X25171*
X140171Y25171D02*
X155171D01*
Y15171*
X170171*
X140171Y35171D02*
X150171D01*
X160171Y45171*
X170171*
X140171D02*
X150171D01*
X160171Y55171*
X170171*
X140171D02*
X155171D01*
Y105171*
X170171*
X140171Y65171D02*
X150171D01*
Y135171*
X170171*
X0Y0D02*
M02*
