%FSLAX35Y35*%
%MOIN*%
G04 EasyPC Gerber Version 18.0.8 Build 3632 *
%ADD11C,0.00500*%
%ADD20C,0.10000*%
X0Y0D02*
D02*
D11*
X250Y250D02*
X195171D01*
Y195171*
X250*
Y250*
X32359Y32984D02*
X32984Y32671D01*
X33296Y32046*
X32984Y31421*
X32359Y31109*
X30171*
Y34859*
X32359*
X32984Y34546*
X33296Y33921*
X32984Y33296*
X32359Y32984*
X30171*
X32359Y42984D02*
X32984Y42671D01*
X33296Y42046*
X32984Y41421*
X32359Y41109*
X30171*
Y44859*
X32359*
X32984Y44546*
X33296Y43921*
X32984Y43296*
X32359Y42984*
X30171*
X32359Y52984D02*
X32984Y52671D01*
X33296Y52046*
X32984Y51421*
X32359Y51109*
X30171*
Y54859*
X32359*
X32984Y54546*
X33296Y53921*
X32984Y53296*
X32359Y52984*
X30171*
X32359Y62984D02*
X32984Y62671D01*
X33296Y62046*
X32984Y61421*
X32359Y61109*
X30171*
Y64859*
X32359*
X32984Y64546*
X33296Y63921*
X32984Y63296*
X32359Y62984*
X30171*
X32359Y72984D02*
X32984Y72671D01*
X33296Y72046*
X32984Y71421*
X32359Y71109*
X30171*
Y74859*
X32359*
X32984Y74546*
X33296Y73921*
X32984Y73296*
X32359Y72984*
X30171*
X37359Y122984D02*
X37984Y122671D01*
X38296Y122046*
X37984Y121421*
X37359Y121109*
X35171*
Y124859*
X37359*
X37984Y124546*
X38296Y123921*
X37984Y123296*
X37359Y122984*
X35171*
X37359Y132984D02*
X37984Y132671D01*
X38296Y132046*
X37984Y131421*
X37359Y131109*
X35171*
Y134859*
X37359*
X37984Y134546*
X38296Y133921*
X37984Y133296*
X37359Y132984*
X35171*
X37359Y162984D02*
X37984Y162671D01*
X38296Y162046*
X37984Y161421*
X37359Y161109*
X35171*
Y164859*
X37359*
X37984Y164546*
X38296Y163921*
X37984Y163296*
X37359Y162984*
X35171*
X37359Y172984D02*
X37984Y172671D01*
X38296Y172046*
X37984Y171421*
X37359Y171109*
X35171*
Y174859*
X37359*
X37984Y174546*
X38296Y173921*
X37984Y173296*
X37359Y172984*
X35171*
X37359Y182984D02*
X37984Y182671D01*
X38296Y182046*
X37984Y181421*
X37359Y181109*
X35171*
Y184859*
X37359*
X37984Y184546*
X38296Y183921*
X37984Y183296*
X37359Y182984*
X35171*
X45171Y181109D02*
X46734Y184859D01*
X48296Y181109*
X45796Y182671D02*
X47671D01*
X50171Y31109D02*
X51734Y34859D01*
X53296Y31109*
X50796Y32671D02*
X52671D01*
X50171Y41109D02*
X51734Y44859D01*
X53296Y41109*
X50796Y42671D02*
X52671D01*
X50171Y51109D02*
X51734Y54859D01*
X53296Y51109*
X50796Y52671D02*
X52671D01*
X50171Y61109D02*
X51734Y64859D01*
X53296Y61109*
X50796Y62671D02*
X52671D01*
X50171Y71109D02*
X51734Y74859D01*
X53296Y71109*
X50796Y72671D02*
X52671D01*
X50171Y81109D02*
X51734Y84859D01*
X53296Y81109*
X50796Y82671D02*
X52671D01*
X50171Y91109D02*
X51734Y94859D01*
X53296Y91109*
X50796Y92671D02*
X52671D01*
X50171Y101109D02*
X51734Y104859D01*
X53296Y101109*
X50796Y102671D02*
X52671D01*
X57359Y122984D02*
X57984Y122671D01*
X58296Y122046*
X57984Y121421*
X57359Y121109*
X55171*
Y124859*
X57359*
X57984Y124546*
X58296Y123921*
X57984Y123296*
X57359Y122984*
X55171*
X57359Y132984D02*
X57984Y132671D01*
X58296Y132046*
X57984Y131421*
X57359Y131109*
X55171*
Y134859*
X57359*
X57984Y134546*
X58296Y133921*
X57984Y133296*
X57359Y132984*
X55171*
X57359Y142984D02*
X57984Y142671D01*
X58296Y142046*
X57984Y141421*
X57359Y141109*
X55171*
Y144859*
X57359*
X57984Y144546*
X58296Y143921*
X57984Y143296*
X57359Y142984*
X55171*
X80171Y31109D02*
X81734Y34859D01*
X83296Y31109*
X80796Y32671D02*
X82671D01*
X80171Y41109D02*
X81734Y44859D01*
X83296Y41109*
X80796Y42671D02*
X82671D01*
X80171Y51109D02*
X81734Y54859D01*
X83296Y51109*
X80796Y52671D02*
X82671D01*
X80171Y61109D02*
X81734Y64859D01*
X83296Y61109*
X80796Y62671D02*
X82671D01*
X80171Y71109D02*
X81734Y74859D01*
X83296Y71109*
X80796Y72671D02*
X82671D01*
X80171Y81109D02*
X81734Y84859D01*
X83296Y81109*
X80796Y82671D02*
X82671D01*
X80171Y91109D02*
X81734Y94859D01*
X83296Y91109*
X80796Y92671D02*
X82671D01*
X80171Y101109D02*
X81734Y104859D01*
X83296Y101109*
X80796Y102671D02*
X82671D01*
X88296Y131734D02*
X87984Y131421D01*
X87359Y131109*
X86421*
X85796Y131421*
X85484Y131734*
X85171Y132359*
Y133609*
X85484Y134234*
X85796Y134546*
X86421Y134859*
X87359*
X87984Y134546*
X88296Y134234*
Y141734D02*
X87984Y141421D01*
X87359Y141109*
X86421*
X85796Y141421*
X85484Y141734*
X85171Y142359*
Y143609*
X85484Y144234*
X85796Y144546*
X86421Y144859*
X87359*
X87984Y144546*
X88296Y144234*
X85171Y181109D02*
X86734Y184859D01*
X88296Y181109*
X85796Y182671D02*
X87671D01*
X102359Y72984D02*
X102984Y72671D01*
X103296Y72046*
X102984Y71421*
X102359Y71109*
X100171*
Y74859*
X102359*
X102984Y74546*
X103296Y73921*
X102984Y73296*
X102359Y72984*
X100171*
X102359Y92984D02*
X102984Y92671D01*
X103296Y92046*
X102984Y91421*
X102359Y91109*
X100171*
Y94859*
X102359*
X102984Y94546*
X103296Y93921*
X102984Y93296*
X102359Y92984*
X100171*
X120171Y31109D02*
X121734Y34859D01*
X123296Y31109*
X120796Y32671D02*
X122671D01*
X120171Y41109D02*
X121734Y44859D01*
X123296Y41109*
X120796Y42671D02*
X122671D01*
X120171Y51109D02*
X121734Y54859D01*
X123296Y51109*
X120796Y52671D02*
X122671D01*
X120171Y61109D02*
X121734Y64859D01*
X123296Y61109*
X120796Y62671D02*
X122671D01*
X120171Y71109D02*
X121734Y74859D01*
X123296Y71109*
X120796Y72671D02*
X122671D01*
X120171Y81109D02*
X121734Y84859D01*
X123296Y81109*
X120796Y82671D02*
X122671D01*
X120171Y91109D02*
X121734Y94859D01*
X123296Y91109*
X120796Y92671D02*
X122671D01*
X120171Y101109D02*
X121734Y104859D01*
X123296Y101109*
X120796Y102671D02*
X122671D01*
X120171Y111109D02*
X121734Y114859D01*
X123296Y111109*
X120796Y112671D02*
X122671D01*
X120171Y121109D02*
X121734Y124859D01*
X123296Y121109*
X120796Y122671D02*
X122671D01*
X120171Y131109D02*
X121734Y134859D01*
X123296Y131109*
X120796Y132671D02*
X122671D01*
X120171Y141109D02*
X121734Y144859D01*
X123296Y141109*
X120796Y142671D02*
X122671D01*
X120171Y151109D02*
X121734Y154859D01*
X123296Y151109*
X120796Y152671D02*
X122671D01*
X120171Y161109D02*
X121734Y164859D01*
X123296Y161109*
X120796Y162671D02*
X122671D01*
X150171Y31109D02*
X151734Y34859D01*
X153296Y31109*
X150796Y32671D02*
X152671D01*
X150171Y41109D02*
X151734Y44859D01*
X153296Y41109*
X150796Y42671D02*
X152671D01*
X150171Y51109D02*
X151734Y54859D01*
X153296Y51109*
X150796Y52671D02*
X152671D01*
X150171Y61109D02*
X151734Y64859D01*
X153296Y61109*
X150796Y62671D02*
X152671D01*
X150171Y71109D02*
X151734Y74859D01*
X153296Y71109*
X150796Y72671D02*
X152671D01*
X150171Y81109D02*
X151734Y84859D01*
X153296Y81109*
X150796Y82671D02*
X152671D01*
X150171Y91109D02*
X151734Y94859D01*
X153296Y91109*
X150796Y92671D02*
X152671D01*
X150171Y101109D02*
X151734Y104859D01*
X153296Y101109*
X150796Y102671D02*
X152671D01*
X150171Y111109D02*
X151734Y114859D01*
X153296Y111109*
X150796Y112671D02*
X152671D01*
X150171Y121109D02*
X151734Y124859D01*
X153296Y121109*
X150796Y122671D02*
X152671D01*
X150171Y131109D02*
X151734Y134859D01*
X153296Y131109*
X150796Y132671D02*
X152671D01*
X150171Y141109D02*
X151734Y144859D01*
X153296Y141109*
X150796Y142671D02*
X152671D01*
X150171Y151109D02*
X151734Y154859D01*
X153296Y151109*
X150796Y152671D02*
X152671D01*
X150171Y161109D02*
X151734Y164859D01*
X153296Y161109*
X150796Y162671D02*
X152671D01*
X182359Y22984D02*
X182984Y22671D01*
X183296Y22046*
X182984Y21421*
X182359Y21109*
X180171*
Y24859*
X182359*
X182984Y24546*
X183296Y23921*
X182984Y23296*
X182359Y22984*
X180171*
X182359Y32984D02*
X182984Y32671D01*
X183296Y32046*
X182984Y31421*
X182359Y31109*
X180171*
Y34859*
X182359*
X182984Y34546*
X183296Y33921*
X182984Y33296*
X182359Y32984*
X180171*
X182359Y42984D02*
X182984Y42671D01*
X183296Y42046*
X182984Y41421*
X182359Y41109*
X180171*
Y44859*
X182359*
X182984Y44546*
X183296Y43921*
X182984Y43296*
X182359Y42984*
X180171*
X182359Y52984D02*
X182984Y52671D01*
X183296Y52046*
X182984Y51421*
X182359Y51109*
X180171*
Y54859*
X182359*
X182984Y54546*
X183296Y53921*
X182984Y53296*
X182359Y52984*
X180171*
X182359Y62984D02*
X182984Y62671D01*
X183296Y62046*
X182984Y61421*
X182359Y61109*
X180171*
Y64859*
X182359*
X182984Y64546*
X183296Y63921*
X182984Y63296*
X182359Y62984*
X180171*
X182359Y72984D02*
X182984Y72671D01*
X183296Y72046*
X182984Y71421*
X182359Y71109*
X180171*
Y74859*
X182359*
X182984Y74546*
X183296Y73921*
X182984Y73296*
X182359Y72984*
X180171*
X182359Y102984D02*
X182984Y102671D01*
X183296Y102046*
X182984Y101421*
X182359Y101109*
X180171*
Y104859*
X182359*
X182984Y104546*
X183296Y103921*
X182984Y103296*
X182359Y102984*
X180171*
X182359Y112984D02*
X182984Y112671D01*
X183296Y112046*
X182984Y111421*
X182359Y111109*
X180171*
Y114859*
X182359*
X182984Y114546*
X183296Y113921*
X182984Y113296*
X182359Y112984*
X180171*
X182359Y132984D02*
X182984Y132671D01*
X183296Y132046*
X182984Y131421*
X182359Y131109*
X180171*
Y134859*
X182359*
X182984Y134546*
X183296Y133921*
X182984Y133296*
X182359Y132984*
X180171*
X182359Y142984D02*
X182984Y142671D01*
X183296Y142046*
X182984Y141421*
X182359Y141109*
X180171*
Y144859*
X182359*
X182984Y144546*
X183296Y143921*
X182984Y143296*
X182359Y142984*
X180171*
X182359Y172984D02*
X182984Y172671D01*
X183296Y172046*
X182984Y171421*
X182359Y171109*
X180171*
Y174859*
X182359*
X182984Y174546*
X183296Y173921*
X182984Y173296*
X182359Y172984*
X180171*
X182359Y182984D02*
X182984Y182671D01*
X183296Y182046*
X182984Y181421*
X182359Y181109*
X180171*
Y184859*
X182359*
X182984Y184546*
X183296Y183921*
X182984Y183296*
X182359Y182984*
X180171*
D02*
D20*
X20171Y25171D03*
Y35171D03*
Y45171D03*
Y55171D03*
Y65171D03*
X25171Y115171D03*
Y125171D03*
Y155171D03*
Y165171D03*
Y175171D03*
X35171D03*
X40171Y25171D03*
Y35171D03*
Y45171D03*
Y55171D03*
Y65171D03*
Y75171D03*
Y85171D03*
Y95171D03*
X45171Y115171D03*
Y125171D03*
Y135171D03*
X70171Y25171D03*
Y35171D03*
Y45171D03*
Y55171D03*
Y65171D03*
Y75171D03*
Y85171D03*
Y95171D03*
X75171Y125171D03*
Y135171D03*
Y175171D03*
X90171Y65171D03*
Y85171D03*
X110171Y25171D03*
Y35171D03*
Y45171D03*
Y55171D03*
Y65171D03*
Y75171D03*
Y85171D03*
Y95171D03*
Y105171D03*
Y115171D03*
Y125171D03*
Y135171D03*
Y145171D03*
Y155171D03*
X140171Y25171D03*
Y35171D03*
Y45171D03*
Y55171D03*
Y65171D03*
Y75171D03*
Y85171D03*
Y95171D03*
Y105171D03*
Y115171D03*
Y125171D03*
Y135171D03*
Y145171D03*
Y155171D03*
X170171Y15171D03*
Y25171D03*
Y35171D03*
Y45171D03*
Y55171D03*
Y65171D03*
Y95171D03*
Y105171D03*
Y125171D03*
Y135171D03*
Y165171D03*
Y175171D03*
X0Y0D02*
M02*
