%FSLAX35Y35*%
%MOIN*%
G04 EasyPC Gerber Version 18.0.8 Build 3632 *
%ADD11C,0.00500*%
%ADD12C,0.01000*%
X0Y0D02*
D02*
D11*
X9234Y30171D02*
X5484D01*
X7359Y31734*
X5484Y33296*
X9234*
X8296Y35171D02*
X8921Y35484D01*
X9234Y36109*
Y36734*
X8921Y37359*
X8296Y37671*
X7671*
X7046Y37359*
X6734Y36734*
Y36109*
X7046Y35484*
X7671Y35171*
X8296*
X6734Y40796D02*
Y42046D01*
X6109Y41421D02*
X8921D01*
X9234Y41734*
Y42046*
X8921Y42359*
Y47671D02*
X9234Y47359D01*
Y46734*
Y46109*
X8921Y45484*
X8296Y45171*
X7359*
X7046Y45484*
X6734Y46109*
Y46734*
X7046Y47359*
X7359Y47671*
X7671*
X7984Y47359*
X8296Y46734*
Y46109*
X7984Y45484*
X7671Y45171*
X6734Y50171D02*
X8296D01*
X8921Y50484*
X9234Y51109*
Y51734*
X8921Y52359*
X8296Y52671*
X6734D02*
X9234D01*
Y55171D02*
X6734D01*
X7671D02*
X7046Y55484D01*
X6734Y56109*
Y56734*
X7046Y57359*
X8296Y110171D02*
X8921Y110484D01*
X9234Y111109*
Y112359*
X8921Y112984*
X8296Y113296*
X7671Y112984*
X7359Y112359*
Y111109*
X7046Y110484*
X6421Y110171*
X5796Y110484*
X5484Y111109*
Y112359*
X5796Y112984*
X6421Y113296*
X6734Y115796D02*
Y117046D01*
X6109Y116421D02*
X8921D01*
X9234Y116734*
Y117046*
X8921Y117359*
X9234Y120171D02*
X6734D01*
X7671D02*
X7046Y120484D01*
X6734Y121109*
Y121734*
X7046Y122359*
X9234Y126421D02*
X6734D01*
X5796D02*
X6734Y130171*
X10171D01*
X8296D02*
X8921Y130484D01*
X9234Y131109*
Y131734*
X8921Y132359*
X8296Y132671*
X7671*
X7046Y132359*
X6734Y131734*
Y131109*
X7046Y130484*
X7671Y130171*
X8296*
X5484Y160171D02*
X8296D01*
X8921Y160484*
X9234Y161109*
Y162359*
X8921Y162984*
X8296Y163296*
X5484*
X8921Y165171D02*
X9234Y165796D01*
Y167046*
X8921Y167671*
X8296*
X7984Y167046*
Y165796*
X7671Y165171*
X7046*
X6734Y165796*
Y167046*
X7046Y167671*
X8296Y170171D02*
X8921Y170484D01*
X9234Y171109*
Y171734*
X8921Y172359*
X8296Y172671*
X7671*
X7046Y172359*
X6734Y171734*
Y171109*
X7046Y170484*
X7671Y170171*
X9234D02*
X5484D01*
X40171Y175171D02*
X45171D01*
Y170171D02*
Y180171D01*
X65171*
Y170171*
X45171*
X51421Y183609D02*
Y187359D01*
X53609*
X54234Y187046*
X54546Y186421*
X54234Y185796*
X53609Y185484*
X51421*
X53609D02*
X54546Y183609D01*
X57046D02*
X58296D01*
X57671D02*
Y187359D01*
X57046Y186734*
X59234Y111734D02*
X55484D01*
Y110171D02*
Y113296D01*
X59234Y116109D02*
Y117359D01*
Y116734D02*
X55484D01*
Y116109D02*
Y117359D01*
X59234Y120171D02*
X55484D01*
Y122359*
X55796Y122984*
X56421Y123296*
X57046Y122984*
X57359Y122359*
Y120171*
X59234Y125796D02*
Y127046D01*
Y126421D02*
X55484D01*
X56109Y125796*
X59234Y132671D02*
Y130171D01*
X57046Y132359*
X56421Y132671*
X55796Y132359*
X55484Y131734*
Y130796*
X55796Y130171*
X58921Y135484D02*
X59234Y136109D01*
Y136734*
X58921Y137359*
X58296Y137671*
X56421*
X55796Y137359*
X55484Y136734*
Y136109*
X55796Y135484*
X56421Y135171*
X58296*
X58921Y135484*
X55796Y137359*
X60171Y142046D02*
X60484Y141421D01*
X61109Y141109*
X62359*
X62984Y141421*
X63296Y142046*
X62984Y142671*
X62359Y142984*
X61109*
X60484Y143296*
X60171Y143921*
X60484Y144546*
X61109Y144859*
X62359*
X62984Y144546*
X63296Y143921*
X65796Y143609D02*
X67046D01*
X66421Y144234D02*
Y141421D01*
X66734Y141109*
X67046*
X67359Y141421*
X70171Y143296D02*
X70796Y143609D01*
X71734*
X72359Y143296*
X72671Y142671*
Y141734*
X72359Y141421*
X71734Y141109*
X71109*
X70484Y141421*
X70171Y141734*
Y142046*
X70484Y142359*
X71109Y142671*
X71734*
X72359Y142359*
X72671Y142046*
Y141734D02*
Y141109D01*
X75796Y143609D02*
X77046D01*
X76421Y144234D02*
Y141421D01*
X76734Y141109*
X77046*
X77359Y141421*
X80171Y143609D02*
Y142046D01*
X80484Y141421*
X81109Y141109*
X81734*
X82359Y141421*
X82671Y142046*
Y143609D02*
Y141109D01*
X85171Y141421D02*
X85796Y141109D01*
X87046*
X87671Y141421*
Y142046*
X87046Y142359*
X85796*
X85171Y142671*
Y143296*
X85796Y143609*
X87046*
X87671Y143296*
X65171Y175171D02*
X70171D01*
Y5484D02*
Y8296D01*
X69859Y8921*
X69234Y9234*
X67984*
X67359Y8921*
X67046Y8296*
Y5484*
X65171D02*
Y9234D01*
X62046*
X60171D02*
Y5484D01*
X57046Y9234*
Y5484*
X52671Y9234D02*
X55171D01*
X52984Y7046*
X52671Y6421*
X52984Y5796*
X53609Y5484*
X54546*
X55171Y5796*
X49859Y8921D02*
X49234Y9234D01*
X48609*
X47984Y8921*
X47671Y8296*
Y6421*
X47984Y5796*
X48609Y5484*
X49234*
X49859Y5796*
X50171Y6421*
Y8296*
X49859Y8921*
X47984Y5796*
X44859Y8921D02*
X44234Y9234D01*
X43609*
X42984Y8921*
X42671Y8296*
Y6421*
X42984Y5796*
X43609Y5484*
X44234*
X44859Y5796*
X45171Y6421*
Y8296*
X44859Y8921*
X42984Y5796*
X39859Y8921D02*
X39234Y9234D01*
X38609*
X37984Y8921*
X37671Y8296*
X37984Y7671*
X38609Y7359*
X39234*
X38609D02*
X37984Y7046D01*
X37671Y6421*
X37984Y5796*
X38609Y5484*
X39234*
X39859Y5796*
X77671Y102671D02*
Y17671D01*
X75171Y15171*
X57671*
Y17671*
X52671*
Y15171*
X32671*
Y102671*
X77671*
X83296Y96734D02*
X82984Y96421D01*
X82359Y96109*
X81421*
X80796Y96421*
X80484Y96734*
X80171Y97359*
Y98609*
X80484Y99234*
X80796Y99546*
X81421Y99859*
X82359*
X82984Y99546*
X83296Y99234*
X85171Y96109D02*
Y98609D01*
Y97671D02*
X85484Y98296D01*
X86109Y98609*
X86734*
X87359Y98296*
X90171Y98609D02*
X90484Y97359D01*
X91109Y96734*
X91734*
X92359Y97359*
X92671Y98609*
X92359Y97359D02*
X92046Y96109D01*
X91734Y95484*
X91109Y95171*
X90484Y95484*
X95171Y96421D02*
X95796Y96109D01*
X97046*
X97671Y96421*
Y97046*
X97046Y97359*
X95796*
X95171Y97671*
Y98296*
X95796Y98609*
X97046*
X97671Y98296*
X86171Y130171D02*
G75*
G03X75171Y141171I-11000D01*
G01*
G75*
G03X64171Y130171J-11000*
G01*
G75*
G03X68471Y119871I14583J41*
G01*
X81871*
G75*
G03X86171Y130171I-10283J10341*
G01*
X100171Y171109D02*
X101734Y174859D01*
X103296Y171109*
X100796Y172671D02*
X102671D01*
X105796Y173609D02*
X107046D01*
X106421Y174234D02*
Y171421D01*
X106734Y171109*
X107046*
X107359Y171421*
X110171Y171109D02*
Y173609D01*
Y173296D02*
X110484Y173609D01*
X111109*
X111421Y173296*
Y172359*
Y173296D02*
X111734Y173609D01*
X112359*
X112671Y173296*
Y171109*
X117671Y171421D02*
X117359Y171109D01*
X116734*
X116109*
X115484Y171421*
X115171Y172046*
Y172984*
X115484Y173296*
X116109Y173609*
X116734*
X117359Y173296*
X117671Y172984*
Y172671*
X117359Y172359*
X116734Y172046*
X116109*
X115484Y172359*
X115171Y172671*
X122671D02*
X122359Y173296D01*
X121734Y173609*
X121109*
X120484Y173296*
X120171Y172671*
Y172359*
X120484Y171734*
X121109Y171421*
X121734*
X122359Y171734*
X122671Y172359*
Y173609D02*
Y171109D01*
X122359Y170484*
X121734Y170171*
X120796*
X120171Y170484*
X125171Y173296D02*
X125796Y173609D01*
X126734*
X127359Y173296*
X127671Y172671*
Y171734*
X127359Y171421*
X126734Y171109*
X126109*
X125484Y171421*
X125171Y171734*
Y172046*
X125484Y172359*
X126109Y172671*
X126734*
X127359Y172359*
X127671Y172046*
Y171734D02*
Y171109D01*
X130484Y171421D02*
X131109Y171109D01*
X131734*
X132359Y171421*
X132671Y172046*
X132359Y172671*
X131734Y172984*
X131109*
X131734D02*
X132359Y173296D01*
X132671Y173921*
X132359Y174546*
X131734Y174859*
X131109*
X130484Y174546*
X137671Y171109D02*
X135171D01*
X137359Y173296*
X137671Y173921*
X137359Y174546*
X136734Y174859*
X135796*
X135171Y174546*
X141109Y172984D02*
X141734D01*
X142359Y173296*
X142671Y173921*
X142359Y174546*
X141734Y174859*
X141109*
X140484Y174546*
X140171Y173921*
X140484Y173296*
X141109Y172984*
X140484Y172671*
X140171Y172046*
X140484Y171421*
X141109Y171109*
X141734*
X142359Y171421*
X142671Y172046*
X142359Y172671*
X141734Y172984*
X145171Y173609D02*
Y170171D01*
Y172046D02*
X145484Y171421D01*
X146109Y171109*
X146734*
X147359Y171421*
X147671Y172046*
Y172671*
X147359Y173296*
X146734Y173609*
X146109*
X145484Y173296*
X145171Y172671*
Y172046*
X102671Y17671D02*
Y162671D01*
X105171Y165171*
X120171*
Y162671*
X130171*
Y165171*
X147671*
Y17671*
X102671*
X187984Y57984D02*
X187671Y57359D01*
X187046Y57046*
X186421Y57359*
X186109Y57984*
Y60171*
X189859*
Y57984*
X189546Y57359*
X188921Y57046*
X188296Y57359*
X187984Y57984*
Y60171*
X186109Y53609D02*
Y53921D01*
X189859*
X188609Y50171D02*
X187046D01*
X186421Y49859*
X186109Y49234*
Y48609*
X186421Y47984*
X187046Y47671*
X188609D02*
X186109D01*
X186421Y42671D02*
X186109Y42984D01*
Y43609*
Y44234*
X186421Y44859*
X187046Y45171*
X187984*
X188296Y44859*
X188609Y44234*
Y43609*
X188296Y42984*
X187984Y42671*
X187671*
X187359Y42984*
X187046Y43609*
Y44234*
X187359Y44859*
X187671Y45171*
X188609Y39546D02*
Y38296D01*
X189234Y38921D02*
X186421D01*
X186109Y38609*
Y38296*
X186421Y37984*
X187046Y35171D02*
X186421Y34859D01*
X186109Y34234*
Y33609*
X186421Y32984*
X187046Y32671*
X187671*
X188296Y32984*
X188609Y33609*
Y34234*
X188296Y34859*
X187671Y35171*
X187046*
Y30171D02*
X186421Y29859D01*
X186109Y29234*
Y28609*
X186421Y27984*
X187046Y27671*
X187671*
X188296Y27984*
X188609Y28609*
Y29234*
X188296Y29859*
X187671Y30171*
X187046*
X188609Y24546D02*
Y23296D01*
X189234Y23921D02*
X186421D01*
X186109Y23609*
Y23296*
X186421Y22984*
X186109Y20171D02*
X189859D01*
X187671D02*
X188296Y19859D01*
X188609Y19234*
Y18609*
X188296Y17984*
X187671Y17671*
X186109*
Y110171D02*
X189859D01*
Y107046*
X187984Y107671D02*
Y110171D01*
X186109D02*
Y107046D01*
Y105171D02*
X188609D01*
X187671D02*
X188296Y104859D01*
X188609Y104234*
Y103609*
X188296Y102984*
X187671Y102671*
X186109*
X187671Y97671D02*
X188296Y97984D01*
X188609Y98609*
Y99234*
X188296Y99859*
X187671Y100171*
X187046*
X186421Y99859*
X186109Y99234*
Y98609*
X186421Y97984*
X187046Y97671*
X186109D02*
X189859D01*
X186109Y92671D02*
Y95171D01*
X188296Y92984*
X188921Y92671*
X189546Y92984*
X189859Y93609*
Y94546*
X189546Y95171*
X186109Y140171D02*
X189859D01*
Y137046*
X187984Y137671D02*
Y140171D01*
X186109D02*
Y137046D01*
Y135171D02*
X188609D01*
X187671D02*
X188296Y134859D01*
X188609Y134234*
Y133609*
X188296Y132984*
X187671Y132671*
X186109*
X187671Y127671D02*
X188296Y127984D01*
X188609Y128609*
Y129234*
X188296Y129859*
X187671Y130171*
X187046*
X186421Y129859*
X186109Y129234*
Y128609*
X186421Y127984*
X187046Y127671*
X186109D02*
X189859D01*
X186109Y124546D02*
Y123296D01*
Y123921D02*
X189859D01*
X189234Y124546*
X186109Y180171D02*
X189859Y178609D01*
X186109Y177046*
X187671Y179546D02*
Y177671D01*
X186109Y173609D02*
Y173921D01*
X189859*
X186109Y168921D02*
X188609D01*
X189546D02*
X186109Y165171*
X188609D01*
X188296D02*
X188609Y164859D01*
Y164234*
X188296Y163921*
X187359*
X188296D02*
X188609Y163609D01*
Y162984*
X188296Y162671*
X186109*
D02*
D12*
X25171Y20171D02*
Y70171D01*
X10171*
Y20171*
X25171*
X30171Y110171D02*
Y130171D01*
X15171*
Y110171*
X30171*
Y150171D02*
Y180171D01*
X15171*
Y150171*
X30171*
X50171Y110171D02*
Y140171D01*
X35171*
Y110171*
X50171*
X85171Y90171D02*
Y60171D01*
X95171*
Y90171*
X85171*
X165171Y70171D02*
Y10171D01*
X180171*
Y70171*
X165171*
Y110171D02*
Y90171D01*
X180171*
Y110171*
X165171*
Y140171D02*
Y120171D01*
X180171*
Y140171*
X165171*
Y180171D02*
Y160171D01*
X180171*
Y180171*
X165171*
X0Y0D02*
M02*
