%FSLAX35Y35*%
%MOIN*%
G04 EasyPC Gerber Version 18.0.8 Build 3632 *
%ADD10C,0.00100*%
X0Y0D02*
D02*
D10*
X14046Y23546D02*
X14171Y23796D01*
X14421Y23921*
X14671Y23796*
X14796Y23546*
Y22671*
X13296*
Y23546*
X13421Y23796*
X13671Y23921*
X13921Y23796*
X14046Y23546*
Y22671*
X14421Y24671D02*
X14671Y24796D01*
X14796Y25046*
Y25296*
X14671Y25546*
X14421Y25671*
X14171*
X13921Y25546*
X13796Y25296*
Y25046*
X13921Y24796*
X14171Y24671*
X14796D02*
X13296D01*
X14796Y26921D02*
Y27421D01*
Y27171D02*
X13296D01*
X13546Y26921*
X14046Y33546D02*
X14171Y33796D01*
X14421Y33921*
X14671Y33796*
X14796Y33546*
Y32671*
X13296*
Y33546*
X13421Y33796*
X13671Y33921*
X13921Y33796*
X14046Y33546*
Y32671*
X14421Y34671D02*
X14671Y34796D01*
X14796Y35046*
Y35296*
X14671Y35546*
X14421Y35671*
X14171*
X13921Y35546*
X13796Y35296*
Y35046*
X13921Y34796*
X14171Y34671*
X14796D02*
X13296D01*
X14796Y37671D02*
Y36671D01*
X13921Y37546*
X13671Y37671*
X13421Y37546*
X13296Y37296*
Y36921*
X13421Y36671*
X14046Y43546D02*
X14171Y43796D01*
X14421Y43921*
X14671Y43796*
X14796Y43546*
Y42671*
X13296*
Y43546*
X13421Y43796*
X13671Y43921*
X13921Y43796*
X14046Y43546*
Y42671*
X14421Y44671D02*
X14671Y44796D01*
X14796Y45046*
Y45296*
X14671Y45546*
X14421Y45671*
X14171*
X13921Y45546*
X13796Y45296*
Y45046*
X13921Y44796*
X14171Y44671*
X14796D02*
X13296D01*
X14671Y46796D02*
X14796Y47046D01*
Y47296*
X14671Y47546*
X14421Y47671*
X14171Y47546*
X14046Y47296*
Y47046*
Y47296D02*
X13921Y47546D01*
X13671Y47671*
X13421Y47546*
X13296Y47296*
Y47046*
X13421Y46796*
X14046Y53546D02*
X14171Y53796D01*
X14421Y53921*
X14671Y53796*
X14796Y53546*
Y52671*
X13296*
Y53546*
X13421Y53796*
X13671Y53921*
X13921Y53796*
X14046Y53546*
Y52671*
X14421Y54671D02*
X14671Y54796D01*
X14796Y55046*
Y55296*
X14671Y55546*
X14421Y55671*
X14171*
X13921Y55546*
X13796Y55296*
Y55046*
X13921Y54796*
X14171Y54671*
X14796D02*
X13296D01*
X14796Y57296D02*
X13296D01*
X14296Y56671*
Y57671*
X13296Y62671D02*
X14796Y63296D01*
X13296Y63921*
X13921Y65671D02*
X13796Y65421D01*
Y65046*
X13921Y64796*
X14171Y64671*
X14421*
X14671Y64796*
X14796Y65046*
Y65421*
X14671Y65671*
X13921Y67671D02*
X13796Y67421D01*
Y67046*
X13921Y66796*
X14171Y66671*
X14421*
X14671Y66796*
X14796Y67046*
Y67421*
X14671Y67671*
X19171Y113546D02*
Y113921D01*
X19296*
X19546Y113796*
X19671Y113671*
X19796Y113421*
Y113171*
X19671Y112921*
X19546Y112796*
X19296Y112671*
X18796*
X18546Y112796*
X18421Y112921*
X18296Y113171*
Y113421*
X18421Y113671*
X18546Y113796*
X18796Y113921*
X19796Y114671D02*
X18796D01*
X19171D02*
X18921Y114796D01*
X18796Y115046*
Y115296*
X18921Y115546*
X19171Y115671*
X19796*
X19171Y117671D02*
X18921Y117546D01*
X18796Y117296*
Y117046*
X18921Y116796*
X19171Y116671*
X19421*
X19671Y116796*
X19796Y117046*
Y117296*
X19671Y117546*
X19421Y117671*
X19796D02*
X18296D01*
Y122671D02*
X19796Y123296D01*
X18296Y123921*
X18921Y125671D02*
X18796Y125421D01*
Y125046*
X18921Y124796*
X19171Y124671*
X19421*
X19671Y124796*
X19796Y125046*
Y125421*
X19671Y125671*
X18921Y127671D02*
X18796Y127421D01*
Y127046*
X18921Y126796*
X19171Y126671*
X19421*
X19671Y126796*
X19796Y127046*
Y127421*
X19671Y127671*
X19702Y153452D02*
X17828D01*
Y152671D02*
Y154234D01*
X19702Y155171D02*
X18452Y156421D01*
X19702D02*
X18452Y155171D01*
X19702Y162671D02*
X17828D01*
Y163765*
X17984Y164078*
X18296Y164234*
X18609Y164078*
X18765Y163765*
Y162671*
Y163765D02*
X19702Y164234D01*
Y165171D02*
X18452Y166421D01*
X19702D02*
X18452Y165171D01*
X19702Y172671D02*
X17828D01*
Y173765*
X17984Y174078*
X18296Y174234*
X18609Y174078*
X18765Y173765*
Y172671*
Y173765D02*
X19702Y174234D01*
X19546Y175171D02*
X19702Y175484D01*
Y176109*
X19546Y176421*
X19234*
X19078Y176109*
Y175484*
X18921Y175171*
X18609*
X18452Y175484*
Y176109*
X18609Y176421*
X18452Y177984D02*
Y178609D01*
X18140Y178296D02*
X19546D01*
X19702Y178452*
Y178609*
X19546Y178765*
X38765Y113765D02*
X38921Y114078D01*
X39234Y114234*
X39546Y114078*
X39702Y113765*
Y112671*
X37828*
Y113765*
X37984Y114078*
X38296Y114234*
X38609Y114078*
X38765Y113765*
Y112671*
X39546Y115171D02*
X39702Y115484D01*
Y116109*
X39546Y116421*
X39234*
X39078Y116109*
Y115484*
X38921Y115171*
X38609*
X38452Y115484*
Y116109*
X38609Y116421*
X39546Y118921D02*
X39702Y118765D01*
Y118452*
Y118140*
X39546Y117828*
X39234Y117671*
X38765*
X38609Y117828*
X38452Y118140*
Y118452*
X38609Y118765*
X38765Y118921*
X38921*
X39078Y118765*
X39234Y118452*
Y118140*
X39078Y117828*
X38921Y117671*
X39702Y123140D02*
Y123765D01*
Y123452D02*
X37828D01*
Y123140D02*
Y123765D01*
X39702Y125171D02*
X38452D01*
X38921D02*
X38609Y125328D01*
X38452Y125640*
Y125952*
X38609Y126265*
X38921Y126421*
X39702*
X39078Y132671D02*
X38452D01*
X38140Y132828*
X37984Y132984*
X37828Y133296*
Y133609*
X37984Y133921*
X38140Y134078*
X38452Y134234*
X39078*
X39390Y134078*
X39546Y133921*
X39702Y133609*
Y133296*
X39546Y132984*
X39390Y132828*
X39078Y132671*
X38452Y135171D02*
X39234D01*
X39546Y135328*
X39702Y135640*
Y135952*
X39546Y136265*
X39234Y136421*
X38452D02*
X39702D01*
X38452Y137984D02*
Y138609D01*
X38140Y138296D02*
X39546D01*
X39702Y138452*
Y138609*
X39546Y138765*
X50171Y24796D02*
Y23296D01*
X49546Y24046*
X48921Y23296*
Y24796*
X47921D02*
X47421D01*
X47671D02*
Y23296D01*
X47921Y23546*
X50171Y34796D02*
Y33296D01*
X49546Y34046*
X48921Y33296*
Y34796*
X47171D02*
X48171D01*
X47296Y33921*
X47171Y33671*
X47296Y33421*
X47546Y33296*
X47921*
X48171Y33421*
X50171Y44796D02*
Y43296D01*
X49546Y44046*
X48921Y43296*
Y44796*
X48046Y44671D02*
X47796Y44796D01*
X47546*
X47296Y44671*
X47171Y44421*
X47296Y44171*
X47546Y44046*
X47796*
X47546D02*
X47296Y43921D01*
X47171Y43671*
X47296Y43421*
X47546Y43296*
X47796*
X48046Y43421*
X50171Y54796D02*
Y53296D01*
X49546Y54046*
X48921Y53296*
Y54796*
X47546D02*
Y53296D01*
X48171Y54296*
X47171*
X52671Y93296D02*
X52046Y94796D01*
X51421Y93296*
X49671Y93921D02*
X49921Y93796D01*
X50296*
X50546Y93921*
X50671Y94171*
Y94421*
X50546Y94671*
X50296Y94796*
X49921*
X49671Y94671*
X47671Y93921D02*
X47921Y93796D01*
X48296*
X48546Y93921*
X48671Y94171*
Y94421*
X48546Y94671*
X48296Y94796*
X47921*
X47671Y94671*
X62671Y24796D02*
X62046Y23296D01*
X61421Y24796*
X62421Y24171D02*
X61671D01*
X60421Y24796D02*
X59921D01*
X60171D02*
Y23296D01*
X60421Y23546*
X62671Y34796D02*
X62046Y33296D01*
X61421Y34796*
X62421Y34171D02*
X61671D01*
X59671Y34796D02*
X60671D01*
X59796Y33921*
X59671Y33671*
X59796Y33421*
X60046Y33296*
X60421*
X60671Y33421*
X62671Y44796D02*
X62046Y43296D01*
X61421Y44796*
X62421Y44171D02*
X61671D01*
X60546Y44671D02*
X60296Y44796D01*
X60046*
X59796Y44671*
X59671Y44421*
X59796Y44171*
X60046Y44046*
X60296*
X60046D02*
X59796Y43921D01*
X59671Y43671*
X59796Y43421*
X60046Y43296*
X60296*
X60546Y43421*
X62671Y54796D02*
X62046Y53296D01*
X61421Y54796*
X62421Y54171D02*
X61671D01*
X60046Y54796D02*
Y53296D01*
X60671Y54296*
X59671*
X61796Y94171D02*
X61421D01*
Y94296*
X61546Y94546*
X61671Y94671*
X61921Y94796*
X62171*
X62421Y94671*
X62546Y94546*
X62671Y94296*
Y93796*
X62546Y93546*
X62421Y93421*
X62171Y93296*
X61921*
X61671Y93421*
X61546Y93546*
X61421Y93796*
X60671Y94796D02*
Y93796D01*
Y94171D02*
X60546Y93921D01*
X60296Y93796*
X60046*
X59796Y93921*
X59671Y94171*
Y94796*
X57671Y94171D02*
X57796Y93921D01*
X58046Y93796*
X58296*
X58546Y93921*
X58671Y94171*
Y94421*
X58546Y94671*
X58296Y94796*
X58046*
X57796Y94671*
X57671Y94421*
Y94796D02*
Y93296D01*
X88921Y68296D02*
X88796Y68171D01*
X88546Y68046*
X88171*
X87921Y68171*
X87796Y68296*
X87671Y68546*
Y69046*
X87796Y69296*
X87921Y69421*
X88171Y69546*
X88546*
X88796Y69421*
X88921Y69296*
X89921Y68046D02*
X90421D01*
X90171D02*
Y69546D01*
X89921Y69296*
X88921Y80796D02*
X88796Y80671D01*
X88546Y80546*
X88171*
X87921Y80671*
X87796Y80796*
X87671Y81046*
Y81546*
X87796Y81796*
X87921Y81921*
X88171Y82046*
X88546*
X88796Y81921*
X88921Y81796*
X90671Y80546D02*
X89671D01*
X90546Y81421*
X90671Y81671*
X90546Y81921*
X90296Y82046*
X89921*
X89671Y81921*
X117671Y25546D02*
Y27046D01*
X118296Y26296*
X118921Y27046*
Y25546*
X119921D02*
X120421D01*
X120171D02*
Y27046D01*
X119921Y26796*
X117671Y35546D02*
Y37046D01*
X118296Y36296*
X118921Y37046*
Y35546*
X120671D02*
X119671D01*
X120546Y36421*
X120671Y36671*
X120546Y36921*
X120296Y37046*
X119921*
X119671Y36921*
X117671Y45546D02*
Y47046D01*
X118296Y46296*
X118921Y47046*
Y45546*
X119796Y45671D02*
X120046Y45546D01*
X120296*
X120546Y45671*
X120671Y45921*
X120546Y46171*
X120296Y46296*
X120046*
X120296D02*
X120546Y46421D01*
X120671Y46671*
X120546Y46921*
X120296Y47046*
X120046*
X119796Y46921*
X117671Y55546D02*
Y57046D01*
X118296Y56296*
X118921Y57046*
Y55546*
X120296D02*
Y57046D01*
X119671Y56046*
X120671*
X118921Y65796D02*
X118796Y65671D01*
X118546Y65546*
X118171*
X117921Y65671*
X117796Y65796*
X117671Y66046*
Y66546*
X117796Y66796*
X117921Y66921*
X118171Y67046*
X118546*
X118796Y66921*
X118921Y66796*
X120671Y65546D02*
X119671D01*
X120546Y66421*
X120671Y66671*
X120546Y66921*
X120296Y67046*
X119921*
X119671Y66921*
X118921Y75796D02*
X118796Y75671D01*
X118546Y75546*
X118171*
X117921Y75671*
X117796Y75796*
X117671Y76046*
Y76546*
X117796Y76796*
X117921Y76921*
X118171Y77046*
X118546*
X118796Y76921*
X118921Y76796*
X119921Y75546D02*
X120421D01*
X120171D02*
Y77046D01*
X119921Y76796*
X118546Y86171D02*
X118921D01*
Y86046*
X118796Y85796*
X118671Y85671*
X118421Y85546*
X118171*
X117921Y85671*
X117796Y85796*
X117671Y86046*
Y86546*
X117796Y86796*
X117921Y86921*
X118171Y87046*
X118421*
X118671Y86921*
X118796Y86796*
X118921Y86546*
X119671Y85546D02*
Y86546D01*
Y86171D02*
X119796Y86421D01*
X120046Y86546*
X120296*
X120546Y86421*
X120671Y86171*
Y85546*
X122671Y86171D02*
X122546Y86421D01*
X122296Y86546*
X122046*
X121796Y86421*
X121671Y86171*
Y85921*
X121796Y85671*
X122046Y85546*
X122296*
X122546Y85671*
X122671Y85921*
Y85546D02*
Y87046D01*
X117671Y97046D02*
X118296Y95546D01*
X118921Y97046*
X120671Y96421D02*
X120421Y96546D01*
X120046*
X119796Y96421*
X119671Y96171*
Y95921*
X119796Y95671*
X120046Y95546*
X120421*
X120671Y95671*
X122671Y96421D02*
X122421Y96546D01*
X122046*
X121796Y96421*
X121671Y96171*
Y95921*
X121796Y95671*
X122046Y95546*
X122421*
X122671Y95671*
X117671Y119546D02*
Y118046D01*
X118921*
X120671Y118171D02*
X120546Y118046D01*
X120296*
X120046*
X119796Y118171*
X119671Y118421*
Y118796*
X119796Y118921*
X120046Y119046*
X120296*
X120546Y118921*
X120671Y118796*
Y118671*
X120546Y118546*
X120296Y118421*
X120046*
X119796Y118546*
X119671Y118671*
X122671D02*
X122546Y118921D01*
X122296Y119046*
X122046*
X121796Y118921*
X121671Y118671*
Y118421*
X121796Y118171*
X122046Y118046*
X122296*
X122546Y118171*
X122671Y118421*
Y118046D02*
Y119546D01*
X123671Y118546D02*
X124671D01*
X126671Y118921D02*
X126421Y119046D01*
X126046*
X125796Y118921*
X125671Y118671*
Y118421*
X125796Y118171*
X126046Y118046*
X126421*
X126671Y118171*
X127921Y119046D02*
X128421D01*
X128171Y119296D02*
Y118171D01*
X128296Y118046*
X128421*
X128546Y118171*
X130296Y118046D02*
X130171D01*
Y119546*
X117671Y128421D02*
X117796Y128171D01*
X118046Y128046*
X118546*
X118796Y128171*
X118921Y128421*
X118796Y128671*
X118546Y128796*
X118046*
X117796Y128921*
X117671Y129171*
X117796Y129421*
X118046Y129546*
X118546*
X118796Y129421*
X118921Y129171*
X119921Y129046D02*
X120421D01*
X120171Y129296D02*
Y128171D01*
X120296Y128046*
X120421*
X120546Y128171*
X121671Y128921D02*
X121921Y129046D01*
X122296*
X122546Y128921*
X122671Y128671*
Y128296*
X122546Y128171*
X122296Y128046*
X122046*
X121796Y128171*
X121671Y128296*
Y128421*
X121796Y128546*
X122046Y128671*
X122296*
X122546Y128546*
X122671Y128421*
Y128296D02*
Y128046D01*
X123921Y129046D02*
X124421D01*
X124171Y129296D02*
Y128171D01*
X124296Y128046*
X124421*
X124546Y128171*
X125671Y129046D02*
Y128421D01*
X125796Y128171*
X126046Y128046*
X126296*
X126546Y128171*
X126671Y128421*
Y129046D02*
Y128046D01*
X127671Y128171D02*
X127921Y128046D01*
X128421*
X128671Y128171*
Y128421*
X128421Y128546*
X127921*
X127671Y128671*
Y128921*
X127921Y129046*
X128421*
X128671Y128921*
X117671Y138046D02*
Y139546D01*
X118546*
X118796Y139421*
X118921Y139171*
X118796Y138921*
X118546Y138796*
X117671*
X118546D02*
X118921Y138046D01*
X119671D02*
X120671Y139046D01*
Y138046D02*
X119671Y139046D01*
X118296Y148046D02*
Y149546D01*
X117671D02*
X118921D01*
X119671Y148046D02*
X120671Y149046D01*
Y148046D02*
X119671Y149046D01*
X117671Y155546D02*
Y157046D01*
X118546*
X118796Y156921*
X118921Y156671*
X118796Y156421*
X118546Y156296*
X117671*
X118546D02*
X118921Y155546D01*
X120671Y155671D02*
X120546Y155546D01*
X120296*
X120046*
X119796Y155671*
X119671Y155921*
Y156296*
X119796Y156421*
X120046Y156546*
X120296*
X120546Y156421*
X120671Y156296*
Y156171*
X120546Y156046*
X120296Y155921*
X120046*
X119796Y156046*
X119671Y156171*
X121671Y155671D02*
X121921Y155546D01*
X122421*
X122671Y155671*
Y155921*
X122421Y156046*
X121921*
X121671Y156171*
Y156421*
X121921Y156546*
X122421*
X122671Y156421*
X123921Y155546D02*
X124421D01*
X124171D02*
Y157046D01*
X123921Y156796*
X117671Y158046D02*
Y159546D01*
X118546*
X118796Y159421*
X118921Y159171*
X118796Y158921*
X118546Y158796*
X117671*
X118546D02*
X118921Y158046D01*
X119671Y158171D02*
X119921Y158046D01*
X120421*
X120671Y158171*
Y158421*
X120421Y158546*
X119921*
X119671Y158671*
Y158921*
X119921Y159046*
X120421*
X120671Y158921*
X121921Y159046D02*
X122421D01*
X122171Y159296D02*
Y158171D01*
X122296Y158046*
X122421*
X122546Y158171*
X128546Y26296D02*
X128796Y26171D01*
X128921Y25921*
X128796Y25671*
X128546Y25546*
X127671*
Y27046*
X128546*
X128796Y26921*
X128921Y26671*
X128796Y26421*
X128546Y26296*
X127671*
X129671Y25546D02*
Y27046D01*
Y26296D02*
X130046D01*
X130921Y27046*
X130046Y26296D02*
X130921Y25546D01*
X131671Y26546D02*
X131796Y26046D01*
X132046Y25796*
X132296*
X132546Y26046*
X132671Y26546*
X132546Y26046D02*
X132421Y25546D01*
X132296Y25296*
X132046Y25171*
X131796Y25296*
X128546Y36296D02*
X128796Y36171D01*
X128921Y35921*
X128796Y35671*
X128546Y35546*
X127671*
Y37046*
X128546*
X128796Y36921*
X128921Y36671*
X128796Y36421*
X128546Y36296*
X127671*
X129671Y35546D02*
Y37046D01*
X130546*
X130796Y36921*
X130921Y36671*
X130796Y36421*
X130546Y36296*
X129671*
X130546D02*
X130921Y35546D01*
X131671D02*
X132671Y36546D01*
Y35546D02*
X131671Y36546D01*
X128546Y46296D02*
X128796Y46171D01*
X128921Y45921*
X128796Y45671*
X128546Y45546*
X127671*
Y47046*
X128546*
X128796Y46921*
X128921Y46671*
X128796Y46421*
X128546Y46296*
X127671*
X130296Y45546D02*
Y47046D01*
X129671D02*
X130921D01*
X131671Y45546D02*
X132671Y46546D01*
Y45546D02*
X131671Y46546D01*
X127671Y55546D02*
Y57046D01*
X128921*
X128671Y56296D02*
X127671D01*
Y55546D02*
X128921D01*
X129671D02*
Y56546D01*
Y56171D02*
X129796Y56421D01*
X130046Y56546*
X130296*
X130546Y56421*
X130671Y56171*
Y55546*
X132671Y56171D02*
X132546Y56421D01*
X132296Y56546*
X132046*
X131796Y56421*
X131671Y56171*
Y55921*
X131796Y55671*
X132046Y55546*
X132296*
X132546Y55671*
X132671Y55921*
Y55546D02*
Y57046D01*
X134671Y55546D02*
X133671D01*
X134546Y56421*
X134671Y56671*
X134546Y56921*
X134296Y57046*
X133921*
X133671Y56921*
X127671Y65546D02*
Y67046D01*
X128921*
X128671Y66296D02*
X127671D01*
Y65546D02*
X128921D01*
X129671D02*
Y66546D01*
Y66171D02*
X129796Y66421D01*
X130046Y66546*
X130296*
X130546Y66421*
X130671Y66171*
Y65546*
X132671Y66171D02*
X132546Y66421D01*
X132296Y66546*
X132046*
X131796Y66421*
X131671Y66171*
Y65921*
X131796Y65671*
X132046Y65546*
X132296*
X132546Y65671*
X132671Y65921*
Y65546D02*
Y67046D01*
X133921Y65546D02*
X134421D01*
X134171D02*
Y67046D01*
X133921Y66796*
X127671Y77046D02*
X128296Y75546D01*
X128921Y77046*
X130671Y76421D02*
X130421Y76546D01*
X130046*
X129796Y76421*
X129671Y76171*
Y75921*
X129796Y75671*
X130046Y75546*
X130421*
X130671Y75671*
X132671Y76421D02*
X132421Y76546D01*
X132046*
X131796Y76421*
X131671Y76171*
Y75921*
X131796Y75671*
X132046Y75546*
X132421*
X132671Y75671*
X128546Y96171D02*
X128921D01*
Y96046*
X128796Y95796*
X128671Y95671*
X128421Y95546*
X128171*
X127921Y95671*
X127796Y95796*
X127671Y96046*
Y96546*
X127796Y96796*
X127921Y96921*
X128171Y97046*
X128421*
X128671Y96921*
X128796Y96796*
X128921Y96546*
X129671Y95546D02*
Y96546D01*
Y96171D02*
X129796Y96421D01*
X130046Y96546*
X130296*
X130546Y96421*
X130671Y96171*
Y95546*
X132671Y96171D02*
X132546Y96421D01*
X132296Y96546*
X132046*
X131796Y96421*
X131671Y96171*
Y95921*
X131796Y95671*
X132046Y95546*
X132296*
X132546Y95671*
X132671Y95921*
Y95546D02*
Y97046D01*
X175546Y17671D02*
X177046D01*
X176296D02*
Y17296D01*
X177046Y16421*
X176296Y17296D02*
X175546Y16421D01*
X175671Y14671D02*
X175546Y14796D01*
Y15046*
Y15296*
X175671Y15546*
X175921Y15671*
X176296*
X176421Y15546*
X176546Y15296*
Y15046*
X176421Y14796*
X176296Y14671*
X176171*
X176046Y14796*
X175921Y15046*
Y15296*
X176046Y15546*
X176171Y15671*
X176546Y13671D02*
X176046Y13546D01*
X175796Y13296*
Y13046*
X176046Y12796*
X176546Y12671*
X176046Y12796D02*
X175546Y12921D01*
X175296Y13046*
X175171Y13296*
X175296Y13546*
X177046Y27671D02*
X175546Y27046D01*
X177046Y26421*
X176421Y24671D02*
X176546Y24921D01*
Y25296*
X176421Y25546*
X176171Y25671*
X175921*
X175671Y25546*
X175546Y25296*
Y24921*
X175671Y24671*
X176421Y22671D02*
X176546Y22921D01*
Y23296*
X176421Y23546*
X176171Y23671*
X175921*
X175671Y23546*
X175546Y23296*
Y22921*
X175671Y22671*
X176171Y36796D02*
Y36421D01*
X176046*
X175796Y36546*
X175671Y36671*
X175546Y36921*
Y37171*
X175671Y37421*
X175796Y37546*
X176046Y37671*
X176546*
X176796Y37546*
X176921Y37421*
X177046Y37171*
Y36921*
X176921Y36671*
X176796Y36546*
X176546Y36421*
X175546Y35671D02*
X176546D01*
X176171D02*
X176421Y35546D01*
X176546Y35296*
Y35046*
X176421Y34796*
X176171Y34671*
X175546*
X176171Y32671D02*
X176421Y32796D01*
X176546Y33046*
Y33296*
X176421Y33546*
X176171Y33671*
X175921*
X175671Y33546*
X175546Y33296*
Y33046*
X175671Y32796*
X175921Y32671*
X175546D02*
X177046D01*
X175546Y47046D02*
X177046D01*
Y47671D02*
Y46421D01*
X175546Y45671D02*
X176546Y44671D01*
X175546D02*
X176546Y45671D01*
X175546Y57671D02*
X177046D01*
Y56796*
X176921Y56546*
X176671Y56421*
X176421Y56546*
X176296Y56796*
Y57671*
Y56796D02*
X175546Y56421D01*
Y55671D02*
X176546Y54671D01*
X175546D02*
X176546Y55671D01*
X175921Y67671D02*
X175671Y67546D01*
X175546Y67296*
Y66796*
X175671Y66546*
X175921Y66421*
X176171Y66546*
X176296Y66796*
Y67296*
X176421Y67546*
X176671Y67671*
X176921Y67546*
X177046Y67296*
Y66796*
X176921Y66546*
X176671Y66421*
X176546Y65421D02*
Y64921D01*
X176796Y65171D02*
X175671D01*
X175546Y65046*
Y64921*
X175671Y64796*
X176421Y63671D02*
X176546Y63421D01*
Y63046*
X176421Y62796*
X176171Y62671*
X175796*
X175671Y62796*
X175546Y63046*
Y63296*
X175671Y63546*
X175796Y63671*
X175921*
X176046Y63546*
X176171Y63296*
Y63046*
X176046Y62796*
X175921Y62671*
X175796D02*
X175546D01*
X176859Y97671D02*
X175509Y97109D01*
X176859Y96546*
X176296Y94971D02*
X176409Y95196D01*
Y95534*
X176296Y95759*
X176071Y95871*
X175846*
X175621Y95759*
X175509Y95534*
Y95196*
X175621Y94971*
X176296Y93171D02*
X176409Y93396D01*
Y93734*
X176296Y93959*
X176071Y94071*
X175846*
X175621Y93959*
X175509Y93734*
Y93396*
X175621Y93171*
X175509Y107671D02*
X176859D01*
Y106996*
X176746Y106771*
X176634Y106659*
X176409Y106546*
X175959*
X175734Y106659*
X175621Y106771*
X175509Y106996*
Y107671*
X176409Y105646D02*
Y105196D01*
X176634Y105421D02*
X175621D01*
X175509Y105309*
Y105196*
X175621Y105084*
X176296Y104071D02*
X176409Y103846D01*
Y103509*
X176296Y103284*
X176071Y103171*
X175734*
X175621Y103284*
X175509Y103509*
Y103734*
X175621Y103959*
X175734Y104071*
X175846*
X175959Y103959*
X176071Y103734*
Y103509*
X175959Y103284*
X175846Y103171*
X175734D02*
X175509D01*
X176859Y127671D02*
X175509Y127109D01*
X176859Y126546*
X176296Y124971D02*
X176409Y125196D01*
Y125534*
X176296Y125759*
X176071Y125871*
X175846*
X175621Y125759*
X175509Y125534*
Y125196*
X175621Y124971*
X176296Y123171D02*
X176409Y123396D01*
Y123734*
X176296Y123959*
X176071Y124071*
X175846*
X175621Y123959*
X175509Y123734*
Y123396*
X175621Y123171*
X175509Y137671D02*
X176859D01*
Y136996*
X176746Y136771*
X176634Y136659*
X176409Y136546*
X175959*
X175734Y136659*
X175621Y136771*
X175509Y136996*
Y137671*
X176409Y135646D02*
Y135196D01*
X176634Y135421D02*
X175621D01*
X175509Y135309*
Y135196*
X175621Y135084*
X176296Y134071D02*
X176409Y133846D01*
Y133509*
X176296Y133284*
X176071Y133171*
X175734*
X175621Y133284*
X175509Y133509*
Y133734*
X175621Y133959*
X175734Y134071*
X175846*
X175959Y133959*
X176071Y133734*
Y133509*
X175959Y133284*
X175846Y133171*
X175734D02*
X175509D01*
X177046Y167671D02*
X175546Y167046D01*
X177046Y166421*
X176421Y164671D02*
X176546Y164921D01*
Y165296*
X176421Y165546*
X176171Y165671*
X175921*
X175671Y165546*
X175546Y165296*
Y164921*
X175671Y164671*
X176421Y162671D02*
X176546Y162921D01*
Y163296*
X176421Y163546*
X176171Y163671*
X175921*
X175671Y163546*
X175546Y163296*
Y162921*
X175671Y162671*
X176171Y176796D02*
Y176421D01*
X176046*
X175796Y176546*
X175671Y176671*
X175546Y176921*
Y177171*
X175671Y177421*
X175796Y177546*
X176046Y177671*
X176546*
X176796Y177546*
X176921Y177421*
X177046Y177171*
Y176921*
X176921Y176671*
X176796Y176546*
X176546Y176421*
X175546Y175671D02*
X176546D01*
X176171D02*
X176421Y175546D01*
X176546Y175296*
Y175046*
X176421Y174796*
X176171Y174671*
X175546*
X176171Y172671D02*
X176421Y172796D01*
X176546Y173046*
Y173296*
X176421Y173546*
X176171Y173671*
X175921*
X175671Y173546*
X175546Y173296*
Y173046*
X175671Y172796*
X175921Y172671*
X175546D02*
X177046D01*
X0Y0D02*
M02*
